<mxfile host="app.diagrams.net" agent="Mozilla/5.0 (X11; Linux x86_64) AppleWebKit/537.36 (KHTML, like Gecko) Chrome/131.0.0.0 Safari/537.36" version="24.8.6">
  <diagram name="Page-1" id="2YBvvXClWsGukQMizWep">
    <mxGraphModel dx="1687" dy="927" grid="1" gridSize="10" guides="1" tooltips="1" connect="1" arrows="1" fold="1" page="1" pageScale="1" pageWidth="850" pageHeight="1100" math="0" shadow="0">
      <root>
        <mxCell id="0" />
        <mxCell id="1" parent="0" />
        <mxCell id="SUtb8oTXQOj_vAHm1Rom-7" value=":main" style="shape=umlLifeline;perimeter=lifelinePerimeter;whiteSpace=wrap;html=1;container=1;dropTarget=0;collapsible=0;recursiveResize=0;outlineConnect=0;portConstraint=eastwest;newEdgeStyle={&quot;curved&quot;:0,&quot;rounded&quot;:0};" vertex="1" parent="1">
          <mxGeometry x="110" y="500" width="100" height="300" as="geometry" />
        </mxCell>
        <mxCell id="SUtb8oTXQOj_vAHm1Rom-9" value="" style="html=1;points=[[0,0,0,0,5],[0,1,0,0,-5],[1,0,0,0,5],[1,1,0,0,-5]];perimeter=orthogonalPerimeter;outlineConnect=0;targetShapes=umlLifeline;portConstraint=eastwest;newEdgeStyle={&quot;curved&quot;:0,&quot;rounded&quot;:0};" vertex="1" parent="SUtb8oTXQOj_vAHm1Rom-7">
          <mxGeometry x="45" y="50" width="10" height="50" as="geometry" />
        </mxCell>
        <mxCell id="SUtb8oTXQOj_vAHm1Rom-8" value=":DB_client" style="shape=umlLifeline;perimeter=lifelinePerimeter;whiteSpace=wrap;html=1;container=1;dropTarget=0;collapsible=0;recursiveResize=0;outlineConnect=0;portConstraint=eastwest;newEdgeStyle={&quot;curved&quot;:0,&quot;rounded&quot;:0};" vertex="1" parent="1">
          <mxGeometry x="1120" y="500" width="100" height="510" as="geometry" />
        </mxCell>
        <mxCell id="SUtb8oTXQOj_vAHm1Rom-10" value="" style="html=1;points=[[0,0,0,0,5],[0,1,0,0,-5],[1,0,0,0,5],[1,1,0,0,-5]];perimeter=orthogonalPerimeter;outlineConnect=0;targetShapes=umlLifeline;portConstraint=eastwest;newEdgeStyle={&quot;curved&quot;:0,&quot;rounded&quot;:0};" vertex="1" parent="SUtb8oTXQOj_vAHm1Rom-8">
          <mxGeometry x="45" y="60" width="10" height="317" as="geometry" />
        </mxCell>
        <mxCell id="SUtb8oTXQOj_vAHm1Rom-11" value="instance(db_config: {})" style="html=1;verticalAlign=bottom;endArrow=block;curved=0;rounded=0;" edge="1" parent="1" target="SUtb8oTXQOj_vAHm1Rom-8">
          <mxGeometry width="80" relative="1" as="geometry">
            <mxPoint x="170" y="560" as="sourcePoint" />
            <mxPoint x="250" y="560" as="targetPoint" />
          </mxGeometry>
        </mxCell>
        <mxCell id="SUtb8oTXQOj_vAHm1Rom-13" value="app:App" style="shape=umlLifeline;perimeter=lifelinePerimeter;whiteSpace=wrap;html=1;container=1;dropTarget=0;collapsible=0;recursiveResize=0;outlineConnect=0;portConstraint=eastwest;newEdgeStyle={&quot;curved&quot;:0,&quot;rounded&quot;:0};" vertex="1" parent="1">
          <mxGeometry x="290" y="500" width="100" height="300" as="geometry" />
        </mxCell>
        <mxCell id="SUtb8oTXQOj_vAHm1Rom-14" value="" style="html=1;points=[[0,0,0,0,5],[0,1,0,0,-5],[1,0,0,0,5],[1,1,0,0,-5]];perimeter=orthogonalPerimeter;outlineConnect=0;targetShapes=umlLifeline;portConstraint=eastwest;newEdgeStyle={&quot;curved&quot;:0,&quot;rounded&quot;:0};" vertex="1" parent="SUtb8oTXQOj_vAHm1Rom-13">
          <mxGeometry x="45" y="100" width="10" height="30" as="geometry" />
        </mxCell>
        <mxCell id="SUtb8oTXQOj_vAHm1Rom-17" value="new()" style="html=1;verticalAlign=bottom;endArrow=block;curved=0;rounded=0;" edge="1" parent="1">
          <mxGeometry x="0.0028" width="80" relative="1" as="geometry">
            <mxPoint x="160" y="600" as="sourcePoint" />
            <mxPoint x="339.5" y="600" as="targetPoint" />
            <mxPoint as="offset" />
          </mxGeometry>
        </mxCell>
        <mxCell id="SUtb8oTXQOj_vAHm1Rom-18" value="student_list_view:&lt;br&gt;Student_list_view" style="shape=umlLifeline;perimeter=lifelinePerimeter;whiteSpace=wrap;html=1;container=1;dropTarget=0;collapsible=0;recursiveResize=0;outlineConnect=0;portConstraint=eastwest;newEdgeStyle={&quot;curved&quot;:0,&quot;rounded&quot;:0};" vertex="1" parent="1">
          <mxGeometry x="420" y="500" width="130" height="510" as="geometry" />
        </mxCell>
        <mxCell id="SUtb8oTXQOj_vAHm1Rom-19" value="" style="html=1;points=[[0,0,0,0,5],[0,1,0,0,-5],[1,0,0,0,5],[1,1,0,0,-5]];perimeter=orthogonalPerimeter;outlineConnect=0;targetShapes=umlLifeline;portConstraint=eastwest;newEdgeStyle={&quot;curved&quot;:0,&quot;rounded&quot;:0};" vertex="1" parent="SUtb8oTXQOj_vAHm1Rom-18">
          <mxGeometry x="60" y="110" width="10" height="390" as="geometry" />
        </mxCell>
        <mxCell id="SUtb8oTXQOj_vAHm1Rom-20" value="student_list_controller:&lt;br&gt;Student_list_controller" style="shape=umlLifeline;perimeter=lifelinePerimeter;whiteSpace=wrap;html=1;container=1;dropTarget=0;collapsible=0;recursiveResize=0;outlineConnect=0;portConstraint=eastwest;newEdgeStyle={&quot;curved&quot;:0,&quot;rounded&quot;:0};" vertex="1" parent="1">
          <mxGeometry x="580" y="500" width="130" height="520" as="geometry" />
        </mxCell>
        <mxCell id="SUtb8oTXQOj_vAHm1Rom-21" value="" style="html=1;points=[[0,0,0,0,5],[0,1,0,0,-5],[1,0,0,0,5],[1,1,0,0,-5]];perimeter=orthogonalPerimeter;outlineConnect=0;targetShapes=umlLifeline;portConstraint=eastwest;newEdgeStyle={&quot;curved&quot;:0,&quot;rounded&quot;:0};" vertex="1" parent="SUtb8oTXQOj_vAHm1Rom-20">
          <mxGeometry x="60" y="150" width="10" height="300" as="geometry" />
        </mxCell>
        <mxCell id="SUtb8oTXQOj_vAHm1Rom-22" value="new()" style="html=1;verticalAlign=bottom;endArrow=block;curved=0;rounded=0;" edge="1" parent="1">
          <mxGeometry x="0.0028" width="80" relative="1" as="geometry">
            <mxPoint x="350" y="610" as="sourcePoint" />
            <mxPoint x="480" y="610" as="targetPoint" />
            <mxPoint as="offset" />
          </mxGeometry>
        </mxCell>
        <mxCell id="SUtb8oTXQOj_vAHm1Rom-23" value="return" style="html=1;verticalAlign=bottom;endArrow=open;dashed=1;endSize=8;curved=0;rounded=0;" edge="1" parent="1">
          <mxGeometry relative="1" as="geometry">
            <mxPoint x="480" y="630" as="sourcePoint" />
            <mxPoint x="350" y="630" as="targetPoint" />
          </mxGeometry>
        </mxCell>
        <mxCell id="SUtb8oTXQOj_vAHm1Rom-24" value="new()" style="html=1;verticalAlign=bottom;endArrow=block;curved=0;rounded=0;" edge="1" parent="1" target="SUtb8oTXQOj_vAHm1Rom-20">
          <mxGeometry x="0.0356" y="10" width="80" relative="1" as="geometry">
            <mxPoint x="490" y="650" as="sourcePoint" />
            <mxPoint x="480" y="649.57" as="targetPoint" />
            <mxPoint as="offset" />
          </mxGeometry>
        </mxCell>
        <mxCell id="SUtb8oTXQOj_vAHm1Rom-25" value="return" style="html=1;verticalAlign=bottom;endArrow=open;dashed=1;endSize=8;curved=0;rounded=0;" edge="1" parent="1">
          <mxGeometry relative="1" as="geometry">
            <mxPoint x="640" y="700" as="sourcePoint" />
            <mxPoint x="484.63043478260875" y="700" as="targetPoint" />
          </mxGeometry>
        </mxCell>
        <mxCell id="SUtb8oTXQOj_vAHm1Rom-26" value="refresh_data" style="html=1;verticalAlign=bottom;endArrow=block;curved=0;rounded=0;" edge="1" parent="1">
          <mxGeometry x="0.0323" width="80" relative="1" as="geometry">
            <mxPoint x="490" y="760" as="sourcePoint" />
            <mxPoint x="645" y="760" as="targetPoint" />
            <mxPoint as="offset" />
          </mxGeometry>
        </mxCell>
        <mxCell id="SUtb8oTXQOj_vAHm1Rom-27" value="students_list:&lt;br&gt;Students_list" style="shape=umlLifeline;perimeter=lifelinePerimeter;whiteSpace=wrap;html=1;container=1;dropTarget=0;collapsible=0;recursiveResize=0;outlineConnect=0;portConstraint=eastwest;newEdgeStyle={&quot;curved&quot;:0,&quot;rounded&quot;:0};" vertex="1" parent="1">
          <mxGeometry x="960" y="500" width="130" height="460" as="geometry" />
        </mxCell>
        <mxCell id="SUtb8oTXQOj_vAHm1Rom-28" value="" style="html=1;points=[[0,0,0,0,5],[0,1,0,0,-5],[1,0,0,0,5],[1,1,0,0,-5]];perimeter=orthogonalPerimeter;outlineConnect=0;targetShapes=umlLifeline;portConstraint=eastwest;newEdgeStyle={&quot;curved&quot;:0,&quot;rounded&quot;:0};" vertex="1" parent="SUtb8oTXQOj_vAHm1Rom-27">
          <mxGeometry x="60" y="159" width="10" height="220" as="geometry" />
        </mxCell>
        <mxCell id="SUtb8oTXQOj_vAHm1Rom-29" value="new()" style="html=1;verticalAlign=bottom;endArrow=block;curved=0;rounded=0;" edge="1" parent="1" target="SUtb8oTXQOj_vAHm1Rom-28">
          <mxGeometry x="0.0356" y="10" width="80" relative="1" as="geometry">
            <mxPoint x="650" y="660" as="sourcePoint" />
            <mxPoint x="805" y="660" as="targetPoint" />
            <mxPoint as="offset" />
          </mxGeometry>
        </mxCell>
        <mxCell id="SUtb8oTXQOj_vAHm1Rom-30" value="return" style="html=1;verticalAlign=bottom;endArrow=open;dashed=1;endSize=8;curved=0;rounded=0;" edge="1" parent="1" source="SUtb8oTXQOj_vAHm1Rom-27">
          <mxGeometry relative="1" as="geometry">
            <mxPoint x="805.37" y="680" as="sourcePoint" />
            <mxPoint x="650.0004347826087" y="680" as="targetPoint" />
          </mxGeometry>
        </mxCell>
        <mxCell id="SUtb8oTXQOj_vAHm1Rom-31" value="get_k_n_students_short" style="html=1;verticalAlign=bottom;endArrow=block;curved=0;rounded=0;" edge="1" parent="1" target="SUtb8oTXQOj_vAHm1Rom-27">
          <mxGeometry x="0.0323" width="80" relative="1" as="geometry">
            <mxPoint x="650" y="780" as="sourcePoint" />
            <mxPoint x="820" y="780" as="targetPoint" />
            <mxPoint as="offset" />
          </mxGeometry>
        </mxCell>
        <mxCell id="SUtb8oTXQOj_vAHm1Rom-32" value="data_list:&lt;br&gt;Data_list_student_short" style="shape=umlLifeline;perimeter=lifelinePerimeter;whiteSpace=wrap;html=1;container=1;dropTarget=0;collapsible=0;recursiveResize=0;outlineConnect=0;portConstraint=eastwest;newEdgeStyle={&quot;curved&quot;:0,&quot;rounded&quot;:0};" vertex="1" parent="1">
          <mxGeometry x="820" y="500" width="130" height="530" as="geometry" />
        </mxCell>
        <mxCell id="SUtb8oTXQOj_vAHm1Rom-33" value="" style="html=1;points=[[0,0,0,0,5],[0,1,0,0,-5],[1,0,0,0,5],[1,1,0,0,-5]];perimeter=orthogonalPerimeter;outlineConnect=0;targetShapes=umlLifeline;portConstraint=eastwest;newEdgeStyle={&quot;curved&quot;:0,&quot;rounded&quot;:0};" vertex="1" parent="SUtb8oTXQOj_vAHm1Rom-32">
          <mxGeometry x="60" y="190" width="10" height="310" as="geometry" />
        </mxCell>
        <mxCell id="SUtb8oTXQOj_vAHm1Rom-34" value="new()" style="html=1;verticalAlign=bottom;endArrow=block;curved=0;rounded=0;" edge="1" parent="1">
          <mxGeometry x="0.0435" width="80" relative="1" as="geometry">
            <mxPoint x="650" y="690" as="sourcePoint" />
            <mxPoint x="880" y="690" as="targetPoint" />
            <mxPoint as="offset" />
          </mxGeometry>
        </mxCell>
        <mxCell id="SUtb8oTXQOj_vAHm1Rom-35" value="return" style="html=1;verticalAlign=bottom;endArrow=open;dashed=1;endSize=8;curved=0;rounded=0;" edge="1" parent="1" target="SUtb8oTXQOj_vAHm1Rom-20">
          <mxGeometry relative="1" as="geometry">
            <mxPoint x="1020" y="800" as="sourcePoint" />
            <mxPoint x="940" y="800" as="targetPoint" />
          </mxGeometry>
        </mxCell>
        <mxCell id="SUtb8oTXQOj_vAHm1Rom-36" value="data=(data: [])" style="html=1;verticalAlign=bottom;endArrow=block;curved=0;rounded=0;" edge="1" parent="1" target="SUtb8oTXQOj_vAHm1Rom-33">
          <mxGeometry x="0.0667" width="80" relative="1" as="geometry">
            <mxPoint x="650" y="830" as="sourcePoint" />
            <mxPoint x="1025" y="830" as="targetPoint" />
            <mxPoint as="offset" />
          </mxGeometry>
        </mxCell>
        <mxCell id="SUtb8oTXQOj_vAHm1Rom-38" value="get_student_short_count" style="html=1;verticalAlign=bottom;endArrow=block;curved=0;rounded=0;" edge="1" parent="1">
          <mxGeometry x="0.0323" width="80" relative="1" as="geometry">
            <mxPoint x="650" y="860" as="sourcePoint" />
            <mxPoint x="1025" y="860" as="targetPoint" />
            <mxPoint as="offset" />
          </mxGeometry>
        </mxCell>
        <mxCell id="SUtb8oTXQOj_vAHm1Rom-39" value="return" style="html=1;verticalAlign=bottom;endArrow=open;dashed=1;endSize=8;curved=0;rounded=0;" edge="1" parent="1">
          <mxGeometry relative="1" as="geometry">
            <mxPoint x="1024.5" y="880" as="sourcePoint" />
            <mxPoint x="650" y="880" as="targetPoint" />
            <Array as="points">
              <mxPoint x="860" y="880" />
            </Array>
          </mxGeometry>
        </mxCell>
        <mxCell id="SUtb8oTXQOj_vAHm1Rom-40" value="count=(count: integer)" style="html=1;verticalAlign=bottom;endArrow=block;curved=0;rounded=0;" edge="1" parent="1">
          <mxGeometry x="0.0667" width="80" relative="1" as="geometry">
            <mxPoint x="650" y="910" as="sourcePoint" />
            <mxPoint x="880" y="910" as="targetPoint" />
            <mxPoint as="offset" />
          </mxGeometry>
        </mxCell>
        <mxCell id="SUtb8oTXQOj_vAHm1Rom-42" value="select_all" style="html=1;verticalAlign=bottom;endArrow=block;curved=0;rounded=0;" edge="1" parent="1">
          <mxGeometry x="0.0667" width="80" relative="1" as="geometry">
            <mxPoint x="650" y="930" as="sourcePoint" />
            <mxPoint x="880" y="930" as="targetPoint" />
            <mxPoint as="offset" />
          </mxGeometry>
        </mxCell>
        <mxCell id="SUtb8oTXQOj_vAHm1Rom-44" value="notify" style="html=1;verticalAlign=bottom;endArrow=block;curved=0;rounded=0;" edge="1" parent="1">
          <mxGeometry x="0.0667" width="80" relative="1" as="geometry">
            <mxPoint x="650" y="950" as="sourcePoint" />
            <mxPoint x="880" y="950" as="targetPoint" />
            <mxPoint as="offset" />
          </mxGeometry>
        </mxCell>
        <mxCell id="SUtb8oTXQOj_vAHm1Rom-45" value="set_table_params" style="html=1;verticalAlign=bottom;endArrow=block;curved=0;rounded=0;" edge="1" parent="1">
          <mxGeometry width="80" relative="1" as="geometry">
            <mxPoint x="880" y="980" as="sourcePoint" />
            <mxPoint x="484.63043478260875" y="980" as="targetPoint" />
          </mxGeometry>
        </mxCell>
        <mxCell id="SUtb8oTXQOj_vAHm1Rom-46" value="set_table_data" style="html=1;verticalAlign=bottom;endArrow=block;curved=0;rounded=0;" edge="1" parent="1">
          <mxGeometry width="80" relative="1" as="geometry">
            <mxPoint x="885.37" y="1000" as="sourcePoint" />
            <mxPoint x="490.00043478260875" y="1000" as="targetPoint" />
          </mxGeometry>
        </mxCell>
        <mxCell id="SUtb8oTXQOj_vAHm1Rom-47" value="query" style="html=1;verticalAlign=bottom;endArrow=block;curved=0;rounded=0;" edge="1" parent="1" target="SUtb8oTXQOj_vAHm1Rom-8">
          <mxGeometry width="80" relative="1" as="geometry">
            <mxPoint x="1030" y="785" as="sourcePoint" />
            <mxPoint x="1110" y="785" as="targetPoint" />
          </mxGeometry>
        </mxCell>
        <mxCell id="SUtb8oTXQOj_vAHm1Rom-48" value="return" style="html=1;verticalAlign=bottom;endArrow=open;dashed=1;endSize=8;curved=0;rounded=0;" edge="1" parent="1">
          <mxGeometry x="-0.0615" y="13" relative="1" as="geometry">
            <mxPoint x="1161" y="797" as="sourcePoint" />
            <mxPoint x="1031" y="797" as="targetPoint" />
            <mxPoint as="offset" />
          </mxGeometry>
        </mxCell>
        <mxCell id="SUtb8oTXQOj_vAHm1Rom-49" value="query" style="html=1;verticalAlign=bottom;endArrow=block;curved=0;rounded=0;" edge="1" parent="1">
          <mxGeometry width="80" relative="1" as="geometry">
            <mxPoint x="1030" y="864" as="sourcePoint" />
            <mxPoint x="1170" y="864" as="targetPoint" />
          </mxGeometry>
        </mxCell>
        <mxCell id="SUtb8oTXQOj_vAHm1Rom-50" value="return" style="html=1;verticalAlign=bottom;endArrow=open;dashed=1;endSize=8;curved=0;rounded=0;" edge="1" parent="1">
          <mxGeometry x="-0.0615" y="13" relative="1" as="geometry">
            <mxPoint x="1161" y="876" as="sourcePoint" />
            <mxPoint x="1031" y="876" as="targetPoint" />
            <mxPoint as="offset" />
          </mxGeometry>
        </mxCell>
      </root>
    </mxGraphModel>
  </diagram>
</mxfile>
